<svg xmlns="http://www.w3.org/2000/svg" viewBox="0 0 800 320"><path d="M462.2 223.5a53.5 53.5 0 0 1 2.6 5.2l1.4 3.2 1.3 3.1 1.3-3a148.2 148.2 0 0 1 4-8.5h4a99.4 99.4 0 0 1 .9 9.3 516.4 516.4 0 0 1 .6 10H474a511.3 511.3 0 0 0-.6-12.8l-1.1 2.6a388.8 388.8 0 0 0-3.4 7.8h-3a602.9 602.9 0 0 0-4.5-10.4 165.3 165.3 0 0 0-.6 12.9h-4.3a427.7 427.7 0 0 1 1.6-19.4h4.1ZM500.7 233.2a12 12 0 0 1-.8 4.3 8.3 8.3 0 0 1-5 5 11.1 11.1 0 0 1-7.6.1 8.6 8.6 0 0 1-5.2-5c-.5-1.3-.7-2.8-.7-4.4s.2-3.2.7-4.4a8.7 8.7 0 0 1 5.2-5.1 10.9 10.9 0 0 1 7.4 0 8.5 8.5 0 0 1 5.2 5c.5 1.3.8 2.8.8 4.5Zm-14.8 0c0 1 0 1.8.3 2.5s.6 1.5 1 2 1 1 1.6 1.3 1.4.4 2.2.4a4.4 4.4 0 0 0 3.8-1.7 6 6 0 0 0 1-2 9.2 9.2 0 0 0 0-5.2c-.2-.7-.6-1.4-1-2s-1-.9-1.6-1.2c-.7-.3-1.4-.4-2.2-.4a4.6 4.6 0 0 0-3.8 1.8c-.4.5-.8 1.1-1 1.9-.2.8-.3 1.6-.3 2.6ZM517.3 242.9a98 98 0 0 0-8.7-12.7v12.7h-4.3v-19.4h3.6a34 34 0 0 1 4.3 5.1 99.8 99.8 0 0 1 4.5 6.3v-11.4h4.3v19.4h-3.7ZM544 233.2a12 12 0 0 1-.8 4.3 8.3 8.3 0 0 1-5.1 5 11.1 11.1 0 0 1-7.5.1 8.6 8.6 0 0 1-5.2-5c-.5-1.3-.8-2.8-.8-4.4s.3-3.2.8-4.4a8.7 8.7 0 0 1 5.2-5.1 10.9 10.9 0 0 1 7.4 0 8.5 8.5 0 0 1 5.2 5c.5 1.3.8 2.8.8 4.5Zm-14.9 0c0 1 .2 1.8.4 2.5s.6 1.5 1 2 1 1 1.6 1.3 1.4.4 2.2.4a4.4 4.4 0 0 0 3.8-1.7 6 6 0 0 0 1-2 9.2 9.2 0 0 0 0-5.2c-.2-.7-.6-1.4-1-2s-1-.9-1.6-1.2c-.7-.3-1.4-.4-2.2-.4a4.6 4.6 0 0 0-3.8 1.8c-.4.5-.8 1.1-1 1.9-.2.8-.3 1.6-.3 2.6ZM553.3 223.2c2.9 0 5.1.6 6.7 1.6 1.5 1 2.3 2.6 2.3 4.8 0 1.4-.3 2.5-1 3.3-.6.9-1.5 1.6-2.6 2a26.3 26.3 0 0 1 2.5 3.7 40.2 40.2 0 0 1 2.3 4.3h-4.9l-1-2-1.2-1.9a53.7 53.7 0 0 0-2.3-3.2H552v7h-4.4v-19a24.8 24.8 0 0 1 5.7-.6Zm.2 3.8H552v5.3h1.2c1.6 0 2.8-.2 3.5-.6.7-.4 1-1.1 1-2.1s-.3-1.6-1-2-1.8-.6-3.2-.6ZM566.3 242.9v-19.4h13v3.6h-8.7v3.8h7.8v3.6h-7.8v4.7h9.4v3.7h-13.7ZM589 223.2c3 0 5.2.6 6.7 1.6 1.6 1 2.4 2.7 2.4 5s-.8 4-2.4 5c-1.6 1-3.8 1.6-6.7 1.6h-1.4v6.5h-4.4v-19.2a24.7 24.7 0 0 1 5.9-.5Zm.4 3.8a16 16 0 0 0-1.8 0v5.7h1.4c1.5 0 2.6-.3 3.4-.7.8-.4 1.1-1.1 1.1-2.3 0-.5 0-1-.2-1.3s-.5-.6-.9-.9c-.3-.2-.8-.3-1.3-.4l-1.8-.1ZM619.8 233.2a12 12 0 0 1-.8 4.3 8.3 8.3 0 0 1-5.1 5 11.1 11.1 0 0 1-7.6.1 8.6 8.6 0 0 1-5.1-5c-.5-1.3-.8-2.8-.8-4.4s.3-3.2.8-4.4a8.7 8.7 0 0 1 5.2-5.1 10.9 10.9 0 0 1 7.4 0 8.5 8.5 0 0 1 5.2 5c.5 1.3.8 2.8.8 4.5Zm-14.9 0c0 1 .2 1.8.4 2.5s.6 1.5 1 2 1 1 1.6 1.3 1.4.4 2.2.4a4.4 4.4 0 0 0 3.8-1.7 6 6 0 0 0 1-2 9.2 9.2 0 0 0 0-5.2c-.2-.7-.6-1.4-1-2s-1-.9-1.6-1.2c-.7-.3-1.4-.4-2.2-.4a4.6 4.6 0 0 0-3.8 1.8c-.4.5-.8 1.1-1 1.9-.2.8-.4 1.6-.4 2.6Z" style="fill:#3178c6"/><rect x="414.2" y="216.1" width="32" height="32" rx="3.1" ry="3.1" style="fill:#3178c6"/><rect x="414.2" y="216.1" width="32" height="32" rx="3.1" ry="3.1" style="fill:#3178c6"/><path d="M434 241.6v3.1c.6.3 1.2.5 1.9.6l2.2.2c.7 0 1.4 0 2-.2.8-.1 1.4-.4 1.9-.7a3.6 3.6 0 0 0 1.6-3.3c0-.5 0-1-.2-1.5s-.5-.8-.8-1.1l-1.1-.9c-.4-.3-1-.5-1.5-.7a19 19 0 0 1-2-1l-.5-.6-.2-.6c0-.2 0-.4.2-.6l.5-.4.7-.3 1-.1a6.2 6.2 0 0 1 3.3 1v-3l-1.6-.4a11.6 11.6 0 0 0-4 .2c-.7.1-1.3.4-1.8.7-.5.3-.9.8-1.2 1.3-.3.5-.4 1.1-.4 1.9 0 1 .3 1.7.8 2.4.5.6 1.4 1.2 2.4 1.6l1.3.6 1 .5.6.6a1.2 1.2 0 0 1 0 1.3l-.4.4-.7.3-1 .1a6 6 0 0 1-4-1.4Zm-5.2-7.7h4v-2.6h-11.2v2.6h4v11.4h3.2V234Z" style="fill:#fff;fill-rule:evenodd"/><path d="M348.6 183.3c0 7.7-2 13.3-5.8 16.8-4 3.6-9.9 5.3-17.9 5.3a49.5 49.5 0 0 1-16.1-2.6l2-9.5a34.5 34.5 0 0 0 14.3 2.7c4.5 0 7.7-1 9.6-2.8 1.9-1.8 2.8-4.5 2.8-8.1v-1.9c-1.1.6-2.6 1.1-4.4 1.7a23.1 23.1 0 0 1-14.6-.6c-2.5-1-4.6-2.5-6.4-4.4a19.7 19.7 0 0 1-4.3-7c-1-3-1.5-6.2-1.5-10 0-3.4.6-6.6 1.6-9.6a20.6 20.6 0 0 1 12.2-12.3 27 27 0 0 1 10-1.8 61.4 61.4 0 0 1 18.5 2.6v41.5Zm-31-20.3c0 4.7 1.1 8.1 3.2 10.3 2 2.2 4.7 3.3 7.9 3.3a16.6 16.6 0 0 0 8.8-2.5v-24.9a32 32 0 0 0-7.3-.7c-4 0-7.2 1.3-9.3 4a16.2 16.2 0 0 0-3.2 10.5ZM389.1 150.2a35.8 35.8 0 0 0-9.4-1.4 22.4 22.4 0 0 0-6.8 1v38.4h-11.1v-45.7a61.2 61.2 0 0 1 18.7-3.3 27.9 27.9 0 0 1 5.5.5 39.6 39.6 0 0 1 5 1.2l-1.9 9.3ZM413.8 139c3.7 0 6.7.5 9.3 1.4 2.5 1 4.5 2.2 6 3.9 1.5 1.6 2.5 3.6 3.2 6 .6 2.3 1 5 1 7.7v29a79.2 79.2 0 0 1-19.4 2.1c-3 .1-5.6-.2-8-.7-2.4-.6-4.4-1.5-6-2.7-1.8-1.2-3-2.8-4-4.7-1-2-1.5-4.4-1.5-7.3 0-2.7.6-5 1.6-7 1.1-1.9 2.6-3.4 4.4-4.6 1.8-1.2 4-2 6.4-2.6a35.9 35.9 0 0 1 15.7.3v-1.9c0-1.2-.2-2.5-.5-3.6a7.6 7.6 0 0 0-1.6-3.1 7.5 7.5 0 0 0-3-2c-1.2-.6-2.8-.8-4.7-.8a41.9 41.9 0 0 0-12.3 1.8l-1.4-9a43.7 43.7 0 0 1 14.8-2.2Zm1 41.4c3.3 0 6-.2 7.7-.6v-12.2a21.7 21.7 0 0 0-6.5-.9c-1.2 0-2.5.1-3.7.3-1.3.2-2.4.5-3.4 1s-1.8 1.2-2.4 2c-.7 1-1 2-1 3.4 0 2.7.9 4.5 2.5 5.5 1.7 1 3.9 1.5 6.7 1.5ZM445.9 141.8a74.3 74.3 0 0 1 19.7-2.6c4 0 7.2.6 9.8 1.6a15.3 15.3 0 0 1 9.6 11.5 39 39 0 0 1 1 9v26.9h-11.1V163c0-2.6-.2-4.8-.5-6.6-.4-1.8-1-3.2-1.7-4.4-.8-1.1-1.8-2-3.1-2.5s-3-.7-4.8-.7a37 37 0 0 0-7.8.7v38.7h-11.1v-46.4ZM539.1 186.7a65.6 65.6 0 0 1-18.8 2.7 28 28 0 0 1-10.1-1.8 21.2 21.2 0 0 1-12.6-12.8 35 35 0 0 1-.3-20.7c1-3.1 2.4-5.8 4.2-8 1.9-2.2 4.1-3.9 6.7-5 2.7-1.3 5.7-1.9 9.1-1.9 2.3 0 4.4.3 6.2.9 1.7.5 3.3 1.1 4.5 1.8v-23l11.1-1.9v69.7Zm-31.8-22.6c0 4.9 1.2 8.7 3.5 11.5 2.3 2.8 5.5 4.2 9.6 4.2a38 38 0 0 0 7.6-.8v-27.5a17.2 17.2 0 0 0-9-2.7c-4 0-7 1.3-8.9 4a19.7 19.7 0 0 0-2.8 11.3ZM595.7 164.2a31 31 0 0 1-1.6 10.3 21 21 0 0 1-12 13.1c-2.8 1.3-6 1.9-9.4 1.9s-6.5-.6-9.4-1.9c-2.8-1.2-5.2-2.9-7.2-5-2-2.3-3.6-5-4.7-8-1.2-3.2-1.7-6.6-1.7-10.4s.5-7.3 1.7-10.3a21 21 0 0 1 12-13 24 24 0 0 1 18.6 0c2.8 1.1 5.3 2.8 7.3 5s3.6 4.9 4.7 8c1.1 3 1.7 6.5 1.7 10.3Zm-11.4 0c0-4.8-1-8.6-3-11.4-2-2.7-5-4.1-8.6-4.1s-6.5 1.4-8.6 4.1c-2 2.8-3 6.6-3 11.4 0 4.8 1 8.6 3 11.4 2 2.8 5 4.2 8.6 4.2s6.5-1.4 8.6-4.2c2-2.8 3-6.6 3-11.4ZM633.6 163c0-5-.6-8.7-1.9-10.9-1.3-2.2-3.6-3.3-7-3.3a32.8 32.8 0 0 0-7.3.7v38.7h-11.1v-46.4a74 74 0 0 1 19.3-2.6c3.3 0 6 .5 8.1 1.3 2.1.9 3.9 2 5.3 3.4a21.5 21.5 0 0 1 6-3 31.9 31.9 0 0 1 8.5-1.7c3.7 0 6.8.6 9.2 1.6 2.4 1.1 4.3 2.6 5.7 4.5s2.3 4.3 2.8 7 .8 5.7.8 9v26.9h-11.1V163c0-5-.6-8.7-1.8-10.9-1.3-2.2-3.6-3.3-7-3.3a16.4 16.4 0 0 0-8.6 2.6 51.9 51.9 0 0 1 1.3 10.4V188h-11.2V163ZM234.9 182.1l3.8-20.4-8.9-2.3-7.1 19.6-17.3-9.5-5 7.8 15.6 12.1-15.1 14.8 5.8 7.3 17.2-12.6 8.6 19.5 8.6-3.5-5.5-20.2 19.6-2.8-.4-9.3-19.9-.5z" style="fill:#c43b3b"/><path d="m270.5 148.7-32.8-8.7L224 89a17.6 17.6 0 0 0-21.5-12.3L141 93c-9.3 2.5-15 12-12.4 21.3l16.5 61a17.6 17.6 0 0 0 21.5 12.3l10-2.7-5.6 20.6c-2.5 9.2 3 18.8 12.5 21.3l61.4 16.3a17.5 17.5 0 0 0 21.5-12.3l16.5-61c2.5-9.2-3-18.8-12.4-21.3Zm-100.2 10.7 5.6-20.3-19.6-2.7.4-9.3 19.7-.3-3.8-20.5 9-2.4 7 19.5 17.5-9.5 5 7.9-15.7 11.6c-4.3 3-5.4 4.4-7.7 9.9l-8.7 19.5-8.7-3.4Zm102.2 7.7-16.5 61a6.7 6.7 0 0 1-8.3 4.7l-61.5-16.4a6.7 6.7 0 0 1-4-3.1 6.4 6.4 0 0 1-.7-5l16.5-60.9c.7-2.8 3.4-4.9 6.5-4.9a7 7 0 0 1 1.7.3l61.5 16.3c1.8.5 3.2 1.6 4.1 3.1.9 1.5 1.1 3.3.7 5ZM362 201h310v4H362z" style="fill:#c43b3b"/></svg>