<?xml version="1.0" encoding="UTF-8"?><svg xmlns="http://www.w3.org/2000/svg" viewBox="0 0 800 320"><g id="a"><g><g><path d="M348.596,183.335c0,7.641-1.941,13.234-5.823,16.78-3.883,3.545-9.827,5.319-17.835,5.319-2.934,0-5.792-.245-8.573-.733-2.783-.49-5.304-1.132-7.565-1.926l2.017-9.445c1.894,.794,4.049,1.436,6.464,1.926,2.414,.488,5.027,.733,7.84,.733,4.462,0,7.641-.918,9.536-2.751,1.894-1.834,2.842-4.555,2.842-8.161v-1.833c-1.1,.55-2.553,1.1-4.355,1.65-1.804,.55-3.867,.825-6.189,.825-3.057,0-5.854-.489-8.39-1.468-2.537-.976-4.708-2.414-6.51-4.309-1.804-1.894-3.209-4.264-4.218-7.107-1.009-2.842-1.513-6.128-1.513-9.858,0-3.484,.534-6.693,1.604-9.628,1.069-2.934,2.627-5.44,4.677-7.519,2.047-2.077,4.539-3.698,7.473-4.86,2.934-1.161,6.265-1.742,9.995-1.742,3.606,0,7.029,.275,10.27,.825,3.239,.55,5.99,1.132,8.253,1.742v41.537Zm-30.901-20.356c0,4.708,1.023,8.147,3.072,10.316,2.047,2.17,4.691,3.255,7.932,3.255,1.772,0,3.439-.243,4.998-.733,1.558-.489,2.827-1.069,3.805-1.742v-24.849c-.795-.183-1.774-.351-2.934-.504-1.162-.152-2.629-.229-4.402-.229-4.034,0-7.122,1.33-9.261,3.989-2.14,2.659-3.209,6.16-3.209,10.499Z" style="fill:#c43b3b;"/><path d="M389.125,150.233c-.917-.305-2.186-.626-3.805-.963-1.62-.335-3.5-.504-5.639-.504-1.223,0-2.522,.123-3.897,.367-1.375,.245-2.338,.458-2.888,.642v38.42h-11.095v-45.664c2.139-.794,4.814-1.543,8.023-2.247,3.209-.702,6.77-1.054,10.683-1.054,.733,0,1.589,.046,2.567,.138,.977,.092,1.956,.215,2.934,.367,.977,.153,1.926,.337,2.842,.55,.917,.215,1.651,.413,2.201,.596l-1.926,9.353Z" style="fill:#c43b3b;"/><path d="M413.79,139.046c3.668,0,6.754,.458,9.261,1.376,2.506,.917,4.507,2.201,6.006,3.851,1.497,1.651,2.567,3.654,3.209,6.006,.642,2.354,.963,4.937,.963,7.748v29.067c-1.712,.367-4.296,.811-7.749,1.329-3.455,.519-7.351,.78-11.691,.78-2.874,0-5.502-.275-7.886-.825-2.384-.55-4.417-1.435-6.098-2.659-1.682-1.222-2.996-2.812-3.943-4.769-.948-1.955-1.421-4.37-1.421-7.243,0-2.751,.534-5.073,1.605-6.969,1.069-1.894,2.521-3.439,4.355-4.631,1.834-1.191,3.957-2.047,6.373-2.567,2.414-.519,4.935-.779,7.564-.779,1.222,0,2.506,.078,3.851,.229,1.344,.153,2.781,.413,4.31,.779v-1.834c0-1.284-.153-2.506-.459-3.668-.306-1.161-.84-2.185-1.604-3.072-.765-.885-1.774-1.573-3.026-2.063-1.254-.489-2.828-.734-4.722-.734-2.568,0-4.921,.183-7.061,.55-2.14,.367-3.883,.795-5.227,1.283l-1.375-8.986c1.405-.489,3.452-.977,6.144-1.467,2.689-.488,5.562-.733,8.619-.733Zm.917,41.354c3.423,0,6.021-.183,7.794-.55v-12.287c-.611-.183-1.498-.367-2.659-.551-1.162-.183-2.446-.275-3.851-.275-1.224,0-2.461,.091-3.714,.275-1.254,.184-2.383,.52-3.392,1.009-1.009,.49-1.819,1.178-2.43,2.063-.611,.887-.917,2.003-.917,3.347,0,2.629,.825,4.448,2.476,5.456,1.65,1.008,3.881,1.512,6.693,1.512Z" style="fill:#c43b3b;"/><path d="M445.883,141.797c2.139-.611,4.92-1.192,8.343-1.742,3.423-.55,7.213-.825,11.371-.825,3.911,0,7.182,.536,9.811,1.605,2.627,1.07,4.722,2.567,6.281,4.493s2.659,4.249,3.301,6.969c.642,2.721,.962,5.701,.962,8.94v26.958h-11.094v-25.216c0-2.567-.169-4.752-.504-6.556-.337-1.802-.887-3.269-1.651-4.401-.765-1.13-1.804-1.956-3.117-2.476-1.316-.519-2.92-.779-4.814-.779-1.407,0-2.874,.092-4.401,.275-1.529,.183-2.66,.336-3.393,.458v38.695h-11.094v-46.397Z" style="fill:#c43b3b;"/><path d="M539.136,186.728c-2.201,.673-4.967,1.283-8.299,1.833s-6.831,.825-10.499,.825c-3.791,0-7.184-.582-10.178-1.742-2.996-1.161-5.548-2.827-7.657-4.998-2.109-2.169-3.729-4.798-4.86-7.886-1.132-3.086-1.697-6.556-1.697-10.408,0-3.789,.473-7.228,1.421-10.315,.947-3.086,2.339-5.731,4.172-7.932,1.834-2.201,4.065-3.897,6.694-5.089,2.627-1.192,5.653-1.788,9.078-1.788,2.322,0,4.37,.275,6.143,.825,1.772,.55,3.301,1.162,4.584,1.834v-23.016l11.095-1.834v69.688Zm-31.818-22.649c0,4.891,1.161,8.727,3.484,11.508,2.323,2.782,5.532,4.172,9.629,4.172,1.772,0,3.285-.076,4.539-.23,1.252-.152,2.276-.321,3.071-.504v-27.508c-.978-.672-2.277-1.298-3.897-1.879-1.62-.58-3.347-.871-5.181-.871-4.034,0-6.985,1.375-8.848,4.126-1.866,2.751-2.797,6.48-2.797,11.187Z" style="fill:#c43b3b;"/><path d="M595.711,164.17c0,3.791-.55,7.244-1.65,10.362-1.1,3.117-2.659,5.777-4.677,7.977-2.018,2.201-4.447,3.913-7.29,5.135-2.842,1.222-5.976,1.833-9.399,1.833s-6.542-.611-9.352-1.833c-2.812-1.222-5.227-2.934-7.244-5.135-2.017-2.2-3.591-4.86-4.722-7.977-1.132-3.118-1.697-6.571-1.697-10.362s.565-7.228,1.697-10.315c1.131-3.086,2.719-5.731,4.768-7.932,2.047-2.201,4.477-3.897,7.29-5.089,2.811-1.192,5.899-1.788,9.261-1.788s6.464,.596,9.307,1.788c2.842,1.192,5.272,2.888,7.29,5.089,2.017,2.201,3.59,4.845,4.722,7.932,1.13,3.087,1.696,6.526,1.696,10.315Zm-11.37,0c0-4.768-1.025-8.542-3.071-11.324-2.049-2.781-4.906-4.172-8.574-4.172s-6.526,1.391-8.573,4.172c-2.048,2.783-3.072,6.556-3.072,11.324,0,4.83,1.024,8.651,3.072,11.462,2.047,2.812,4.906,4.218,8.573,4.218s6.525-1.405,8.574-4.218c2.047-2.811,3.071-6.632,3.071-11.462Z" style="fill:#c43b3b;"/><path d="M633.58,162.978c0-5.011-.627-8.633-1.879-10.866-1.254-2.231-3.592-3.347-7.015-3.347-1.224,0-2.567,.092-4.034,.275-1.467,.183-2.568,.336-3.301,.458v38.695h-11.094v-46.397c2.139-.611,4.935-1.192,8.39-1.742,3.453-.55,7.106-.825,10.958-.825,3.3,0,6.006,.428,8.114,1.284,2.109,.857,3.865,1.987,5.272,3.393,.672-.489,1.527-1.009,2.568-1.559,1.039-.55,2.201-1.054,3.484-1.513,1.283-.459,2.643-.84,4.08-1.147,1.436-.305,2.889-.458,4.355-.458,3.728,0,6.8,.536,9.215,1.605,2.414,1.07,4.31,2.567,5.685,4.493s2.322,4.249,2.842,6.969c.519,2.721,.78,5.701,.78,8.94v26.958h-11.095v-25.216c0-5.011-.611-8.633-1.833-10.866-1.224-2.231-3.576-3.347-7.061-3.347-1.774,0-3.455,.291-5.043,.871-1.59,.582-2.783,1.146-3.576,1.696,.488,1.529,.825,3.149,1.008,4.86,.183,1.712,.275,3.546,.275,5.502v26.5h-11.095v-25.216Z" style="fill:#c43b3b;"/></g><g><polygon points="234.923 182.095 238.674 161.737 229.775 159.373 222.706 179.048 205.44 169.473 200.401 177.315 216.003 189.442 200.921 204.195 206.726 211.524 223.948 198.936 232.514 218.374 241.056 214.856 235.617 194.652 255.245 191.883 254.836 182.594 234.923 182.095" style="fill:#c43b3b;"/><path d="M270.481,148.65l-32.753-8.7-13.744-50.851c-2.509-9.284-12.135-14.793-21.499-12.305l-61.469,16.328c-9.364,2.488-14.922,12.03-12.413,21.314l16.471,60.938c2.509,9.284,12.135,14.793,21.499,12.305l10.023-2.663-5.554,20.549c-2.509,9.284,3.048,18.826,12.413,21.314l61.469,16.328c1.522,.404,3.05,.597,4.554,.597,7.75,0,14.844-5.128,16.945-12.903l16.471-60.938c2.509-9.284-3.048-18.826-12.413-21.314Zm-100.222,10.726l5.621-20.253-19.629-2.769,.409-9.289,19.782-.266-3.801-20.544,8.899-2.364,7.019,19.489,17.497-9.437,5.039,7.842s-15.708,11.611-15.683,11.594c-4.303,2.971-5.413,4.466-7.751,9.902l-8.679,19.564-8.724-3.47Zm102.194,7.765l-16.471,60.938c-.781,2.891-3.456,4.909-6.505,4.909-.593,0-1.191-.079-1.778-.235l-61.469-16.328c-1.753-.466-3.21-1.574-4.102-3.12-.868-1.503-1.097-3.25-.646-4.919l16.471-60.938c.781-2.89,3.456-4.909,6.505-4.909h0c.593,0,1.191,.079,1.777,.235l61.469,16.328c1.753,.466,3.21,1.574,4.102,3.12,.868,1.503,1.097,3.25,.646,4.919Z" style="fill:#c43b3b;"/></g></g></g><g id="b"><g><g><path d="M462.231,223.465c.337,.616,.726,1.377,1.165,2.282,.44,.905,.898,1.886,1.376,2.94s.95,2.133,1.418,3.233c.468,1.102,.907,2.138,1.319,3.108,.412-.971,.852-2.007,1.319-3.108,.468-1.101,.94-2.179,1.418-3.233s.936-2.035,1.376-2.94c.439-.905,.828-1.666,1.165-2.282h3.976c.187,1.288,.359,2.73,.519,4.326,.158,1.596,.298,3.258,.42,4.984,.121,1.727,.232,3.458,.336,5.193,.103,1.736,.191,3.37,.266,4.9h-4.256c-.056-1.885-.131-3.938-.224-6.16-.094-2.221-.234-4.461-.42-6.72-.338,.784-.712,1.652-1.124,2.604-.412,.952-.819,1.904-1.222,2.856s-.791,1.862-1.166,2.729c-.374,.868-.692,1.61-.955,2.227h-3.052c-.263-.616-.58-1.358-.955-2.227-.374-.867-.764-1.777-1.166-2.729s-.81-1.904-1.222-2.856c-.412-.951-.786-1.819-1.123-2.604-.187,2.259-.327,4.499-.42,6.72-.094,2.222-.168,4.275-.225,6.16h-4.256c.074-1.53,.163-3.164,.267-4.9,.103-1.735,.214-3.467,.336-5.193,.121-1.727,.261-3.389,.42-4.984,.158-1.596,.331-3.038,.518-4.326h4.172Z" style="fill:#3178c6;"/><path d="M500.674,233.153c0,1.661-.247,3.122-.742,4.382-.494,1.26-1.171,2.314-2.029,3.164-.859,.85-1.881,1.488-3.066,1.918-1.186,.429-2.459,.644-3.822,.644-1.325,0-2.575-.215-3.752-.644-1.176-.43-2.202-1.068-3.08-1.918-.877-.85-1.567-1.904-2.071-3.164s-.756-2.721-.756-4.382,.261-3.122,.783-4.382c.522-1.261,1.228-2.319,2.114-3.179,.887-.858,1.913-1.502,3.08-1.932,1.166-.429,2.395-.644,3.682-.644,1.325,0,2.576,.215,3.752,.644,1.177,.43,2.203,1.073,3.08,1.932,.878,.859,1.568,1.918,2.072,3.179,.504,1.26,.756,2.721,.756,4.382Zm-14.812,0c0,.952,.116,1.811,.35,2.576s.569,1.423,1.008,1.974,.976,.976,1.61,1.274,1.362,.447,2.184,.447c.803,0,1.526-.148,2.171-.447,.644-.299,1.185-.724,1.623-1.274s.774-1.208,1.009-1.974c.232-.766,.35-1.624,.35-2.576s-.117-1.815-.35-2.59c-.234-.774-.57-1.438-1.009-1.988s-.979-.976-1.623-1.274c-.645-.298-1.368-.447-2.171-.447-.821,0-1.549,.153-2.184,.462-.635,.308-1.172,.737-1.61,1.288s-.774,1.213-1.008,1.987c-.233,.775-.35,1.629-.35,2.562Z" style="fill:#3178c6;"/><path d="M517.335,242.869c-1.251-2.221-2.604-4.414-4.06-6.58-1.456-2.165-3.006-4.209-4.648-6.132v12.712h-4.312v-19.404h3.556c.616,.616,1.297,1.372,2.044,2.269,.746,.896,1.508,1.853,2.282,2.87s1.544,2.071,2.31,3.164c.766,1.092,1.484,2.142,2.156,3.149v-11.452h4.34v19.404h-3.668Z" style="fill:#3178c6;"/><path d="M543.962,233.153c0,1.661-.247,3.122-.742,4.382-.494,1.26-1.171,2.314-2.029,3.164-.859,.85-1.881,1.488-3.066,1.918-1.186,.429-2.459,.644-3.822,.644-1.325,0-2.575-.215-3.752-.644-1.176-.43-2.202-1.068-3.08-1.918-.877-.85-1.567-1.904-2.071-3.164s-.756-2.721-.756-4.382,.261-3.122,.783-4.382c.522-1.261,1.228-2.319,2.114-3.179,.887-.858,1.913-1.502,3.08-1.932,1.166-.429,2.395-.644,3.682-.644,1.325,0,2.576,.215,3.752,.644,1.177,.43,2.203,1.073,3.08,1.932,.878,.859,1.568,1.918,2.072,3.179,.504,1.26,.756,2.721,.756,4.382Zm-14.812,0c0,.952,.116,1.811,.35,2.576s.569,1.423,1.008,1.974,.976,.976,1.61,1.274,1.362,.447,2.184,.447c.803,0,1.526-.148,2.171-.447,.644-.299,1.185-.724,1.623-1.274s.774-1.208,1.009-1.974c.232-.766,.35-1.624,.35-2.576s-.117-1.815-.35-2.59c-.234-.774-.57-1.438-1.009-1.988s-.979-.976-1.623-1.274c-.645-.298-1.368-.447-2.171-.447-.821,0-1.549,.153-2.184,.462-.635,.308-1.172,.737-1.61,1.288s-.774,1.213-1.008,1.987c-.233,.775-.35,1.629-.35,2.562Z" style="fill:#3178c6;"/><path d="M553.287,223.241c2.912,0,5.143,.518,6.692,1.554,1.549,1.036,2.324,2.646,2.324,4.83,0,1.363-.313,2.469-.938,3.318-.626,.85-1.526,1.517-2.702,2.002,.393,.485,.803,1.041,1.232,1.666,.429,.625,.854,1.278,1.273,1.96s.826,1.391,1.219,2.128c.392,.737,.756,1.461,1.092,2.17h-4.883c-.356-.635-.718-1.278-1.083-1.932s-.739-1.288-1.124-1.904c-.384-.616-.764-1.199-1.138-1.75-.375-.551-.75-1.05-1.125-1.498h-2.155v7.084h-4.368v-19.124c.952-.187,1.937-.317,2.954-.392,1.017-.075,1.927-.112,2.729-.112Zm.252,3.724c-.317,0-.602,.01-.854,.028s-.49,.038-.714,.056v5.265h1.231c1.643,0,2.818-.205,3.528-.616,.709-.41,1.063-1.11,1.063-2.101,0-.951-.359-1.628-1.078-2.029s-1.777-.603-3.178-.603Z" style="fill:#3178c6;"/><path d="M566.279,242.869v-19.404h13.104v3.668h-8.735v3.809h7.756v3.584h-7.756v4.676h9.38v3.668h-13.748Z" style="fill:#3178c6;"/><path d="M589.071,223.241c2.893,0,5.114,.509,6.663,1.526,1.55,1.018,2.324,2.684,2.324,4.998,0,2.333-.784,4.018-2.352,5.054-1.568,1.036-3.809,1.554-6.72,1.554h-1.372v6.496h-4.368v-19.124c.952-.187,1.96-.317,3.023-.392,1.064-.075,1.997-.112,2.801-.112Zm.279,3.724c-.317,0-.63,.01-.938,.028-.309,.019-.574,.038-.798,.056v5.601h1.372c1.512,0,2.65-.205,3.416-.616,.765-.41,1.147-1.176,1.147-2.296,0-.541-.098-.989-.294-1.344s-.476-.64-.84-.854c-.364-.214-.808-.364-1.33-.448s-1.102-.126-1.736-.126Z" style="fill:#3178c6;"/><path d="M619.757,233.153c0,1.661-.247,3.122-.742,4.382-.494,1.26-1.171,2.314-2.029,3.164-.859,.85-1.881,1.488-3.066,1.918-1.186,.429-2.459,.644-3.822,.644-1.325,0-2.575-.215-3.752-.644-1.176-.43-2.202-1.068-3.08-1.918-.877-.85-1.567-1.904-2.071-3.164s-.756-2.721-.756-4.382,.261-3.122,.783-4.382c.522-1.261,1.228-2.319,2.114-3.179,.887-.858,1.913-1.502,3.08-1.932,1.166-.429,2.395-.644,3.682-.644,1.325,0,2.576,.215,3.752,.644,1.177,.43,2.203,1.073,3.08,1.932,.878,.859,1.568,1.918,2.072,3.179,.504,1.26,.756,2.721,.756,4.382Zm-14.812,0c0,.952,.116,1.811,.35,2.576s.569,1.423,1.008,1.974,.976,.976,1.61,1.274,1.362,.447,2.184,.447c.803,0,1.526-.148,2.171-.447,.644-.299,1.185-.724,1.623-1.274s.774-1.208,1.009-1.974c.232-.766,.35-1.624,.35-2.576s-.117-1.815-.35-2.59c-.234-.774-.57-1.438-1.009-1.988s-.979-.976-1.623-1.274c-.645-.298-1.368-.447-2.171-.447-.821,0-1.549,.153-2.184,.462-.635,.308-1.172,.737-1.61,1.288s-.774,1.213-1.008,1.987c-.233,.775-.35,1.629-.35,2.562Z" style="fill:#3178c6;"/></g><g><rect x="414.243" y="216.139" width="32" height="32" rx="3.125" ry="3.125" style="fill:#3178c6;"/><rect x="414.243" y="216.139" width="32" height="32" rx="3.125" ry="3.125" style="fill:#3178c6;"/><path d="M434.051,241.603v3.129c.509,.261,1.11,.456,1.805,.587s1.426,.196,2.196,.196c.75,0,1.462-.072,2.137-.215,.675-.143,1.267-.38,1.775-.709,.509-.329,.911-.759,1.208-1.291s.445-1.188,.445-1.97c0-.567-.085-1.064-.254-1.491s-.414-.807-.734-1.139c-.319-.332-.703-.631-1.149-.895s-.95-.513-1.511-.748c-.411-.17-.779-.334-1.105-.494-.326-.16-.603-.323-.831-.489-.228-.166-.404-.342-.528-.528-.124-.186-.186-.396-.186-.631,0-.215,.055-.409,.166-.582s.267-.321,.469-.445c.202-.124,.45-.22,.743-.288,.294-.068,.619-.103,.978-.103,.261,0,.536,.02,.826,.059,.29,.039,.582,.099,.875,.181,.293,.081,.579,.184,.856,.308,.277,.124,.533,.267,.768,.43v-2.924c-.476-.182-.996-.318-1.56-.406s-1.211-.132-1.942-.132c-.743,0-1.448,.08-2.113,.24s-1.25,.409-1.756,.748c-.505,.339-.905,.771-1.198,1.296-.293,.525-.44,1.152-.44,1.882,0,.932,.269,1.727,.807,2.386,.538,.658,1.355,1.216,2.45,1.672,.43,.176,.831,.349,1.203,.518s.693,.346,.963,.528c.271,.183,.484,.381,.641,.596,.156,.215,.235,.459,.235,.733,0,.202-.049,.389-.147,.562s-.246,.323-.445,.45-.447,.226-.743,.298c-.297,.072-.644,.108-1.042,.108-.678,0-1.35-.119-2.015-.357-.665-.238-1.281-.595-1.849-1.071h0Zm-5.26-7.709h4.014v-2.568h-11.188v2.568h3.994v11.432h3.18v-11.432Z" style="fill:#fff; fill-rule:evenodd;"/></g></g><rect x="362" y="201" width="310" height="4" style="fill:#c43b3b;"/></g></svg>