<svg xmlns="http://www.w3.org/2000/svg" viewBox="0 0 800 320"><path fill="#c43b3b" d="M348.6 183.3c0 7.7-2 13.3-5.8 16.8-4 3.6-9.9 5.3-17.9 5.3a49.5 49.5 0 0 1-16.1-2.6l2-9.5a34.5 34.5 0 0 0 14.3 2.7c4.5 0 7.7-1 9.6-2.8 1.9-1.8 2.8-4.5 2.8-8.1v-1.9c-1.1.6-2.6 1.1-4.4 1.7a23.1 23.1 0 0 1-14.6-.6c-2.5-1-4.6-2.5-6.4-4.4a19.7 19.7 0 0 1-4.3-7 31 31 0 0 1 .1-19.6 20.6 20.6 0 0 1 12.2-12.3 27 27 0 0 1 10-1.8 61.4 61.4 0 0 1 18.5 2.6v41.5Zm-31-20.3c0 4.7 1.1 8.1 3.2 10.3 2 2.2 4.7 3.3 7.9 3.3a16.6 16.6 0 0 0 8.8-2.5v-24.9a32 32 0 0 0-7.3-.7c-4 0-7.2 1.3-9.3 4a16.2 16.2 0 0 0-3.2 10.5Zm71.5-12.8a35.8 35.8 0 0 0-9.4-1.4 22.4 22.4 0 0 0-6.8 1v38.4h-11.1v-45.7a61.2 61.2 0 0 1 18.7-3.3 27.9 27.9 0 0 1 5.5.5 39.6 39.6 0 0 1 5 1.2l-1.9 9.3Zm24.7-11.2c3.7 0 6.7.5 9.3 1.4 2.5 1 4.5 2.2 6 3.9 1.5 1.6 2.5 3.6 3.2 6 .6 2.3 1 5 1 7.7v29a79.2 79.2 0 0 1-19.4 2.1c-3 .1-5.6-.2-8-.7-2.4-.6-4.4-1.5-6-2.7-1.8-1.2-3-2.8-4-4.7-1-2-1.5-4.4-1.5-7.3 0-2.7.6-5 1.6-7 1.1-1.9 2.6-3.4 4.4-4.6 1.8-1.2 4-2 6.4-2.6a35.9 35.9 0 0 1 15.7.3v-1.9c0-1.2-.2-2.5-.5-3.6a7.6 7.6 0 0 0-1.6-3.1 7.5 7.5 0 0 0-3-2c-1.2-.6-2.8-.8-4.7-.8a41.9 41.9 0 0 0-12.3 1.8l-1.4-9a43.7 43.7 0 0 1 14.8-2.2Zm1 41.4c3.3 0 6-.2 7.7-.6v-12.2a21.7 21.7 0 0 0-6.5-.9 23 23 0 0 0-3.7.3c-1.3.2-2.4.5-3.4 1s-1.8 1.2-2.4 2c-.7 1-1 2-1 3.4 0 2.7.9 4.5 2.5 5.5a13 13 0 0 0 6.7 1.5Zm31.1-38.6a74.3 74.3 0 0 1 19.7-2.6c4 0 7.2.6 9.8 1.6a15.3 15.3 0 0 1 9.6 11.5 39 39 0 0 1 1 9v26.9h-11.1V163c0-2.6-.2-4.8-.5-6.6a15 15 0 0 0-1.7-4.4c-.8-1.1-1.8-2-3.1-2.5s-3-.7-4.8-.7a37 37 0 0 0-7.8.7v38.7h-11.1v-46.4Zm93.2 44.9a65.6 65.6 0 0 1-18.8 2.7 28 28 0 0 1-10.1-1.8 21.2 21.2 0 0 1-12.6-12.8 35 35 0 0 1-.3-20.7c1-3.1 2.4-5.8 4.2-8a20.6 20.6 0 0 1 15.8-6.9c2.3 0 4.4.3 6.2.9a21 21 0 0 1 4.5 1.8v-23l11.1-1.9v69.7Zm-31.8-22.6c0 4.9 1.2 8.7 3.5 11.5 2.3 2.8 5.5 4.2 9.6 4.2a38 38 0 0 0 7.6-.8v-27.5a17.2 17.2 0 0 0-9-2.7c-4 0-7 1.3-8.9 4a19.7 19.7 0 0 0-2.8 11.3Zm88.4.1a31 31 0 0 1-1.6 10.3 21 21 0 0 1-12 13.1c-2.8 1.3-6 1.9-9.4 1.9a22.6 22.6 0 0 1-16.6-6.9c-2-2.3-3.6-5-4.7-8-1.2-3.2-1.7-6.6-1.7-10.4s.5-7.3 1.7-10.3a21 21 0 0 1 12-13 24 24 0 0 1 18.6 0c2.8 1.1 5.3 2.8 7.3 5s3.6 4.9 4.7 8a30 30 0 0 1 1.7 10.3Zm-11.4 0c0-4.8-1-8.6-3-11.4-2-2.7-5-4.1-8.6-4.1s-6.5 1.4-8.6 4.1c-2 2.8-3 6.6-3 11.4 0 4.8 1 8.6 3 11.4 2 2.8 5 4.2 8.6 4.2s6.5-1.4 8.6-4.2c2-2.8 3-6.6 3-11.4Zm49.3-1.2c0-5-.6-8.7-1.9-10.9-1.3-2.2-3.6-3.3-7-3.3a32.8 32.8 0 0 0-7.3.7v38.7h-11.1v-46.4a74 74 0 0 1 19.3-2.6c3.3 0 6 .5 8.1 1.3 2.1.9 3.9 2 5.3 3.4a21.5 21.5 0 0 1 6-3 31.9 31.9 0 0 1 8.5-1.7c3.7 0 6.8.6 9.2 1.6 2.4 1.1 4.3 2.6 5.7 4.5s2.3 4.3 2.8 7 .8 5.7.8 9v26.9h-11.1V163c0-5-.6-8.7-1.8-10.9-1.3-2.2-3.6-3.3-7-3.3a16.4 16.4 0 0 0-8.6 2.6 51.9 51.9 0 0 1 1.3 10.4V188h-11.2v-25Z"/><g fill="#c43b3b"><path d="m234.9 182.1 3.8-20.4-8.9-2.3-7.1 19.6-17.3-9.5-5 7.8 15.6 12.1-15.1 14.8 5.8 7.3 17.2-12.6 8.6 19.5 8.6-3.5-5.5-20.2 19.6-2.8-.4-9.3-19.9-.5z"/><path d="m270.5 148.7-32.8-8.7L224 89a17.6 17.6 0 0 0-21.5-12.3L141 93c-9.3 2.5-15 12-12.4 21.3l16.5 61a17.6 17.6 0 0 0 21.5 12.3l10-2.7-5.6 20.6c-2.5 9.2 3 18.8 12.5 21.3l61.4 16.3a17.5 17.5 0 0 0 21.5-12.3l16.5-61c2.5-9.2-3-18.8-12.4-21.3Zm-100.2 10.7 5.6-20.3-19.6-2.7.4-9.3 19.7-.3-3.8-20.5 9-2.4 7 19.5 17.5-9.5 5 7.9-15.7 11.6c-4.3 3-5.4 4.4-7.7 9.9l-8.7 19.5-8.7-3.4Zm102.2 7.7-16.5 61a6.7 6.7 0 0 1-8.3 4.7l-61.5-16.4a6.7 6.7 0 0 1-4-3.1 6.4 6.4 0 0 1-.7-5l16.5-60.9a6.7 6.7 0 0 1 6.5-4.9 7 7 0 0 1 1.7.3l61.5 16.3a6.7 6.7 0 0 1 4.8 8.1Z"/></g></svg>