<?xml version="1.0" encoding="UTF-8"?><svg id="a" xmlns="http://www.w3.org/2000/svg" viewBox="0 0 800 400"><g><path d="M343.023,227.468c0,8.994-2.285,15.578-6.854,19.752-4.57,4.173-11.568,6.261-20.994,6.261-3.454,0-6.818-.288-10.092-.863-3.275-.577-6.244-1.333-8.905-2.267l2.375-11.118c2.229,.935,4.766,1.69,7.609,2.268,2.842,.574,5.918,.863,9.229,.863,5.252,0,8.994-1.08,11.226-3.238,2.229-2.159,3.346-5.361,3.346-9.606v-2.158c-1.295,.647-3.005,1.295-5.127,1.942-2.123,.647-4.552,.972-7.286,.972-3.599,0-6.891-.575-9.876-1.728-2.987-1.149-5.542-2.842-7.664-5.072-2.123-2.229-3.778-5.02-4.965-8.365-1.188-3.346-1.781-7.213-1.781-11.604,0-4.101,.629-7.879,1.889-11.333,1.258-3.454,3.093-6.403,5.505-8.851,2.41-2.445,5.343-4.353,8.796-5.721,3.454-1.366,7.375-2.051,11.765-2.051,4.245,0,8.274,.324,12.089,.972,3.813,.647,7.051,1.332,9.714,2.051v48.895Zm-36.375-23.962c0,5.542,1.204,9.59,3.616,12.144,2.41,2.555,5.521,3.831,9.336,3.831,2.086,0,4.048-.286,5.883-.863,1.834-.575,3.327-1.258,4.479-2.051v-29.25c-.936-.216-2.088-.413-3.454-.594-1.368-.179-3.095-.27-5.181-.27-4.749,0-8.383,1.565-10.901,4.695-2.52,3.13-3.778,7.25-3.778,12.358Z" style="fill:#c43b3b;"/><path d="M390.73,188.503c-1.08-.359-2.574-.737-4.479-1.133-1.907-.395-4.12-.593-6.638-.593-1.44,0-2.968,.145-4.587,.432-1.619,.288-2.752,.54-3.4,.755v45.225h-13.06v-53.752c2.518-.935,5.667-1.816,9.444-2.645,3.778-.826,7.969-1.241,12.575-1.241,.863,0,1.87,.054,3.022,.162,1.15,.108,2.302,.253,3.454,.432,1.15,.18,2.267,.396,3.346,.647,1.08,.253,1.943,.486,2.591,.702l-2.267,11.009Z" style="fill:#c43b3b;"/><path d="M419.764,175.335c4.317,0,7.95,.54,10.901,1.619,2.95,1.079,5.306,2.59,7.07,4.533,1.762,1.943,3.021,4.301,3.777,7.07,.756,2.771,1.134,5.812,1.134,9.121v34.216c-2.016,.432-5.057,.954-9.121,1.564-4.066,.61-8.653,.918-13.762,.918-3.383,0-6.477-.324-9.282-.972-2.807-.647-5.199-1.689-7.178-3.13-1.98-1.438-3.527-3.31-4.642-5.613-1.116-2.302-1.673-5.144-1.673-8.526,0-3.238,.629-5.972,1.889-8.203,1.258-2.229,2.968-4.048,5.126-5.451,2.159-1.402,4.658-2.41,7.502-3.022,2.842-.61,5.81-.917,8.904-.917,1.438,0,2.95,.091,4.533,.27,1.582,.18,3.273,.486,5.073,.917v-2.159c0-1.511-.181-2.95-.54-4.317-.36-1.366-.989-2.572-1.889-3.616-.9-1.042-2.088-1.852-3.562-2.428-1.476-.575-3.329-.864-5.559-.864-3.022,0-5.793,.216-8.312,.648-2.52,.432-4.57,.936-6.152,1.511l-1.619-10.578c1.654-.575,4.064-1.15,7.232-1.727,3.165-.575,6.547-.863,10.146-.863Zm1.079,48.679c4.029,0,7.087-.216,9.175-.647v-14.463c-.72-.216-1.764-.432-3.13-.648-1.368-.216-2.879-.323-4.533-.323-1.44,0-2.897,.107-4.372,.323-1.476,.217-2.806,.612-3.993,1.188-1.188,.577-2.142,1.387-2.86,2.429-.72,1.044-1.079,2.357-1.079,3.939,0,3.095,.971,5.235,2.914,6.423,1.942,1.187,4.568,1.78,7.879,1.78Z" style="fill:#c43b3b;"/><path d="M457.542,178.573c2.518-.719,5.791-1.403,9.821-2.051,4.029-.648,8.49-.972,13.385-.972,4.604,0,8.454,.631,11.549,1.889,3.093,1.26,5.559,3.022,7.394,5.289s3.13,5.002,3.886,8.203c.756,3.203,1.133,6.71,1.133,10.523v31.733h-13.06v-29.683c0-3.022-.199-5.594-.594-7.717-.396-2.122-1.044-3.848-1.943-5.181-.9-1.331-2.123-2.302-3.669-2.915-1.549-.61-3.438-.917-5.667-.917-1.656,0-3.383,.108-5.181,.324-1.8,.216-3.131,.396-3.994,.54v45.549h-13.06v-54.615Z" style="fill:#c43b3b;"/><path d="M567.311,231.462c-2.591,.792-5.847,1.511-9.769,2.158s-8.041,.972-12.358,.972c-4.462,0-8.456-.685-11.98-2.051-3.526-1.366-6.53-3.327-9.013-5.883-2.482-2.553-4.39-5.647-5.721-9.282-1.332-3.633-1.997-7.718-1.997-12.251,0-4.46,.557-8.508,1.673-12.143,1.115-3.633,2.753-6.746,4.911-9.336,2.159-2.59,4.785-4.587,7.88-5.99,3.093-1.403,6.654-2.105,10.686-2.105,2.733,0,5.144,.324,7.231,.972,2.086,.647,3.886,1.368,5.396,2.159v-27.092l13.061-2.159v82.032Zm-37.454-26.66c0,5.758,1.366,10.272,4.102,13.546,2.734,3.274,6.512,4.911,11.334,4.911,2.086,0,3.867-.09,5.343-.271,1.474-.179,2.68-.378,3.615-.594v-32.38c-1.151-.791-2.681-1.528-4.587-2.212-1.907-.683-3.939-1.025-6.099-1.025-4.749,0-8.222,1.619-10.415,4.857-2.196,3.238-3.293,7.628-3.293,13.168Z" style="fill:#c43b3b;"/><path d="M633.907,204.909c0,4.463-.647,8.527-1.942,12.197-1.295,3.669-3.13,6.8-5.505,9.39-2.375,2.591-5.234,4.606-8.581,6.045-3.346,1.438-7.034,2.158-11.063,2.158s-7.7-.72-11.009-2.158c-3.311-1.438-6.152-3.454-8.527-6.045-2.374-2.59-4.228-5.721-5.559-9.39-1.332-3.67-1.997-7.734-1.997-12.197s.665-8.508,1.997-12.143c1.331-3.633,3.201-6.746,5.612-9.336,2.41-2.59,5.271-4.587,8.581-5.99,3.309-1.403,6.943-2.105,10.901-2.105s7.609,.702,10.956,2.105c3.346,1.403,6.206,3.4,8.581,5.99,2.374,2.59,4.226,5.704,5.559,9.336,1.33,3.634,1.996,7.682,1.996,12.143Zm-13.384,0c0-5.612-1.206-10.055-3.615-13.33-2.412-3.273-5.775-4.911-10.093-4.911s-7.682,1.638-10.092,4.911c-2.411,3.275-3.616,7.718-3.616,13.33,0,5.686,1.205,10.184,3.616,13.492,2.41,3.311,5.774,4.965,10.092,4.965s7.681-1.654,10.093-4.965c2.409-3.309,3.615-7.807,3.615-13.492Z" style="fill:#c43b3b;"/><path d="M678.483,203.506c0-5.899-.738-10.163-2.212-12.79-1.477-2.626-4.229-3.939-8.258-3.939-1.44,0-3.021,.108-4.749,.324-1.727,.216-3.022,.396-3.886,.54v45.549h-13.06v-54.615c2.518-.719,5.81-1.403,9.876-2.051,4.064-.648,8.364-.972,12.898-.972,3.885,0,7.069,.504,9.552,1.511,2.482,1.008,4.55,2.339,6.206,3.994,.791-.575,1.798-1.188,3.022-1.835,1.223-.647,2.591-1.241,4.102-1.781,1.511-.54,3.111-.989,4.803-1.35,1.69-.359,3.4-.54,5.127-.54,4.389,0,8.005,.631,10.848,1.889,2.842,1.26,5.073,3.022,6.692,5.289s2.733,5.002,3.346,8.203c.61,3.203,.918,6.71,.918,10.523v31.733h-13.061v-29.683c0-5.899-.72-10.163-2.158-12.79-1.44-2.626-4.21-3.939-8.312-3.939-2.088,0-4.066,.342-5.937,1.025-1.872,.685-3.275,1.349-4.209,1.997,.574,1.799,.971,3.707,1.187,5.721,.216,2.015,.324,4.174,.324,6.476v31.193h-13.061v-29.683Z" style="fill:#c43b3b;"/></g><g><polygon points="202.153 226.008 206.568 202.045 196.093 199.262 187.771 222.422 167.448 211.151 161.516 220.381 179.882 234.657 162.129 252.023 168.962 260.65 189.234 245.832 199.317 268.714 209.372 264.572 202.97 240.789 226.074 237.53 225.593 226.596 202.153 226.008" style="fill:#c43b3b;"/><path d="M244.009,186.639l-38.554-10.241-16.179-59.858c-2.954-10.928-14.284-17.413-25.307-14.485l-72.357,19.22c-11.023,2.928-17.565,14.161-14.611,25.089l19.388,71.732c2.954,10.928,14.284,17.413,25.307,14.485l11.799-3.134-6.538,24.189c-2.954,10.928,3.588,22.161,14.611,25.089l72.357,19.22c1.792,.476,3.59,.703,5.361,.703,9.123,0,17.473-6.036,19.946-15.188l19.388-71.732c2.954-10.928-3.588-22.161-14.611-25.089Zm-117.974,12.626l6.616-23.84-23.105-3.259,.481-10.934,23.286-.313-4.474-24.183,10.475-2.783,8.263,22.941,20.596-11.109,5.932,9.23s-18.49,13.668-18.461,13.648c-5.065,3.498-6.372,5.257-9.124,11.656l-10.216,23.029-10.269-4.085Zm120.295,9.141l-19.388,71.732c-.92,3.403-4.068,5.779-7.657,5.779-.698,0-1.402-.093-2.093-.276l-72.357-19.22c-2.063-.548-3.778-1.852-4.829-3.673-1.022-1.769-1.292-3.826-.761-5.79l19.388-71.732c.92-3.402,4.068-5.779,7.657-5.779h0c.698,0,1.402,.093,2.092,.276l72.357,19.22c2.063,.548,3.778,1.852,4.829,3.673,1.022,1.769,1.292,3.826,.761,5.79Z" style="fill:#c43b3b;"/></g></svg>